<svg width="31" height="31" viewBox="3 4 25 23" fill="none" xmlns="http://www.w3.org/2000/svg">
    <path d="M24.2438 7.82616L16.2878 4.41643C15.7847 4.20081 15.2152 4.20081 14.7121 4.41643L6.75603 7.82616C5.9368 8.17726 5.44876 9.0281 5.55932 9.91252L6.46397 17.1497C6.68412 18.9109 7.56509 20.5228 8.92862 21.659L14.2196 26.0681C14.9612 26.6862 16.0386 26.6862 16.7803 26.0681L22.0712 21.659C23.4347 20.5228 24.3157 18.9109 24.5359 17.1497L25.4405 9.91252C25.5511 9.0281 25.063 8.17726 24.2438 7.82616Z" stroke="#FFFFFF" stroke-width="2" stroke-linecap="round"/>
    <path d="M11.6251 15.5L15.0688 18.9437C15.2919 19.1668 15.6634 19.1301 15.8384 18.8675L20.6667 11.625" stroke="#FFFFFF" stroke-width="2" stroke-linecap="round"/>
</svg>
