<svg version="1.0" xmlns="http://www.w3.org/2000/svg" width="300" height="300" viewBox="0 0 225 225"><g fill="#FFF"><path d="M74.9.9C68 3.1 63 9.8 63 16.7c0 8.7 10 10.2 11.6 1.8 1.2-6.7-.8-6.5 57.9-6.5 46.4 0 53.3.2 55.3 1.6l2.2 1.5v77.8c0 59.1-.3 78-1.2 78.9-.7.7-2.1 1.2-3.3 1.2-3.6 0-6.5 2.8-6.5 6.4 0 4.4 1.6 5.6 7.1 5.6 5.4 0 10.1-2.8 13.6-7.9l2.3-3.4V93.2c0-79.3 0-80.5-2.1-84.1-1.1-2-3.6-4.8-5.6-6.1L190.6.5 134.1.3C103 .2 76.3.5 74.9.9z"/><path d="M30.9 42.3c-1.8 1.2-4.4 3.8-5.6 5.6L23 51.3v80.5c0 79.3 0 80.5 2.1 84.1 1.1 2 3.6 4.8 5.6 6.1l3.7 2.5h116.2l3.7-2.5c2-1.3 4.5-4.1 5.7-6.1 2-3.7 2-4.4 1.8-84.7-.3-80.5-.3-81.1-2.4-83.9-1.1-1.5-3.6-3.8-5.4-5.1l-3.3-2.2H34.3l-3.4 2.3zM149 53.9c.7 1.3 1 27.8 1 79v77l-2.2 1.5c-2 1.4-8.9 1.6-55.3 1.6s-53.3-.2-55.3-1.6l-2.2-1.5v-77.8c0-59.1.3-78 1.2-78.9.9-.9 14.8-1.2 56.5-1.2 53.6 0 55.3.1 56.3 1.9z"/></g></svg>
