<svg width="512" height="512" viewBox="0 0 512 512" id="svg9592" xmlns:xlink="http://www.w3.org/1999/xlink" xmlns="http://www.w3.org/2000/svg" xmlns:svg="http://www.w3.org/2000/svg"><defs id="defs9596"><linearGradient id="linearGradient21918"><stop style="stop-color:#5483a9;stop-opacity:1" offset="0" id="stop21914"/><stop style="stop-color:#7da1be;stop-opacity:1" offset="1" id="stop21916"/></linearGradient><linearGradient xlink:href="#linearGradient21918" id="linearGradient21920" x1="178.16095" y1="192.21648" x2="376.99902" y2="400.18884" gradientUnits="userSpaceOnUse"/></defs><rect width="512" height="512" rx="0" ry="0" fill="#bbcedd" id="rect9588" style="fill:url(#linearGradient21920);fill-opacity:1;stroke-width:6.40003" x="0" y="0"/><path d="m239.68639 84.159994c-27.76703.0-50.14976 23.175676-50.14976 51.287676v2.63751h-77.53599a9.60128 9.60128.0 00-9.6 9.59999v85.6896a9.60128 9.60128.0 009.6 9.60001h19.10016c18.09215.0 32.11263 13.77855 32.11263 30.94975.0 17.17121-14.02367 30.97473-32.11263 30.97473h-19.10016a9.60128 9.60128.0 00-9.6 9.59999v85.6896a9.60128 9.60128.0 009.6 9.59999h255.39838a9.60128 9.60128.0 009.60001-9.59999v-76.0896h6.89984c28.11647.0 51.29983-22.40895 51.29983-50.17472.0-27.76575-23.18721-50.14976-51.29983-50.14976h-6.89984v-76.0896a9.60128 9.60128.0 00-9.60001-9.59999h-77.536v-2.63751c0-28.11519-22.40832-51.287676-50.17471-51.287676zm0 19.199996c17.17696.0 30.97472 14.00128 30.97472 32.08768v12.23744a9.60128 9.60128.0 009.59999 9.60001h77.53601v76.08959a9.60128 9.60128.0 009.59999 9.6h16.49984c18.09217.0 32.09984 13.77536 32.09984 30.94976.0 17.17504-14.01152 30.97472-32.09984 30.97472H367.3971a9.60128 9.60128.0 00-9.59999 9.6v76.08959h-236.1984v-66.48959h9.50016c28.11649.0 51.31264-22.40576 51.31264-50.17472.0-27.7696-23.19935-50.14976-51.31264-50.14976h-9.50016v-66.48959h77.536a9.60128 9.60128.0 009.6-9.60001v-12.23744c0-18.08959 13.7728-32.08768 30.94976-32.08768z" fill="#fff" id="path9590" style="stroke-width:6.40003"/></svg>