<svg width="26" height="26" viewBox="0 0 26 26" fill="none" xmlns="http://www.w3.org/2000/svg">
    <path fill-rule="evenodd" clip-rule="evenodd" d="M11.75 3C6.91751 3 3 6.91751 3 11.75C3 16.5825 6.91751 20.5 11.75 20.5C16.5825 20.5 20.5 16.5825 20.5 11.75C20.5 6.91751 16.5825 3 11.75 3ZM0.5 11.75C0.5 5.5368 5.5368 0.5 11.75 0.5C17.9632 0.5 23 5.5368 23 11.75C23 17.9632 17.9632 23 11.75 23C5.5368 23 0.5 17.9632 0.5 11.75Z" fill="#FFFFFF"/>
    <path fill-rule="evenodd" clip-rule="evenodd" d="M17.9286 17.9286C18.4168 17.4405 19.2082 17.4405 19.6964 17.9286L25.1339 23.3661C25.622 23.8543 25.622 24.6457 25.1339 25.1339C24.6457 25.622 23.8543 25.622 23.3661 25.1339L17.9286 19.6964C17.4405 19.2082 17.4405 18.4168 17.9286 17.9286Z" fill="#FFFFFF"/>
</svg>
