<?xml version="1.0" encoding="utf-8"?>
<svg width="22.610355mm" height="25.777401mm" viewBox="0 0 80 80" version="1.1" xmlns="http://www.w3.org/2000/svg">
  <g><path d="M 40 8 L 5 70 L 75 70 L 40 8 Z" style="stroke-width: 10; stroke-linejoin: round; stroke: rgb(255, 124, 58); fill: rgb(255, 124, 58);"/></g>
  <g><path d="m 43.957714,33.658331 q 0,4.98 -0.36,9.12 -0.36,4.14 -0.9,8.34 l -5.16,0 q -0.6,-4.2 -0.96,-8.34 -0.36,-4.2 -0.36,-9.12 l 0,-11.16 7.74,0 0,11.16 z m 0.9,26.46 q 0,2.1 -1.38,3.42 -1.38,1.32 -3.42,1.32 -1.98,0 -3.42,-1.32 -1.38,-1.32 -1.38,-3.42 0,-2.1 1.38,-3.42 1.44,-1.38 3.42,-1.38 2.04,0 3.42,1.38 1.38,1.32 1.38,3.42 z" style="fill: rgb(255, 255, 255);"/></g>
</svg>
