<svg width="16" height="15" viewBox="0 0 16 15" fill="none" xmlns="http://www.w3.org/2000/svg">
<path d="M15.0312 9.125V13.625C15.0312 13.8488 14.9424 14.0634 14.7841 14.2216C14.6259 14.3799 14.4113 14.4688 14.1875 14.4688H1.8125C1.58872 14.4688 1.37411 14.3799 1.21588 14.2216C1.05764 14.0634 0.96875 13.8488 0.96875 13.625V9.125C0.96875 8.90122 1.05764 8.68661 1.21588 8.52838C1.37411 8.37015 1.58872 8.28125 1.8125 8.28125C2.03628 8.28125 2.25089 8.37015 2.40912 8.52838C2.56736 8.68661 2.65625 8.90122 2.65625 9.125V12.7812H13.3438V9.125C13.3438 8.90122 13.4326 8.68661 13.5909 8.52838C13.7491 8.37015 13.9637 8.28125 14.1875 8.28125C14.4113 8.28125 14.6259 8.37015 14.7841 8.52838C14.9424 8.68661 15.0312 8.90122 15.0312 9.125ZM7.40305 9.72195C7.48143 9.80061 7.57458 9.86302 7.67714 9.90561C7.7797 9.9482 7.88965 9.97012 8.0007 9.97012C8.11175 9.97012 8.22171 9.9482 8.32427 9.90561C8.42683 9.86302 8.51997 9.80061 8.59836 9.72195L11.4109 6.90945C11.5694 6.75094 11.6584 6.53596 11.6584 6.3118C11.6584 6.08763 11.5694 5.87265 11.4109 5.71414C11.2524 5.55563 11.0374 5.46658 10.8132 5.46658C10.589 5.46658 10.3741 5.55563 10.2155 5.71414L8.84375 7.08594V1.25C8.84375 1.02622 8.75485 0.811612 8.59662 0.653379C8.43839 0.495145 8.22378 0.40625 8 0.40625C7.77622 0.40625 7.56161 0.495145 7.40338 0.653379C7.24514 0.811612 7.15625 1.02622 7.15625 1.25V7.08594L5.78445 5.71555C5.70597 5.63706 5.61279 5.5748 5.51025 5.53233C5.4077 5.48985 5.29779 5.46799 5.1868 5.46799C4.96263 5.46799 4.74765 5.55704 4.58914 5.71555C4.51066 5.79403 4.4484 5.88721 4.40592 5.98975C4.36345 6.0923 4.34158 6.20221 4.34158 6.3132C4.34158 6.53737 4.43063 6.75235 4.58914 6.91086L7.40305 9.72195Z" fill="#0D77B5"/>
</svg>
