<svg xmlns="http://www.w3.org/2000/svg" width="16" height="14" fill="none"><path fill="#0E1113" d="M3.5 5.383V.813a.562.562 0 1 0-1.125 0v4.57a2.25 2.25 0 0 0 0 4.36v3.444a.562.562 0 1 0 1.125 0V9.742a2.25 2.25 0 0 0 0-4.36Zm-.563 3.304a1.125 1.125 0 1 1 0-2.25 1.125 1.125 0 0 1 0 2.25Zm5.625-6.68V.813a.562.562 0 1 0-1.125 0v1.196a2.25 2.25 0 0 0 0 4.36v6.82a.562.562 0 1 0 1.125 0v-6.82a2.25 2.25 0 0 0 0-4.36ZM8 5.313a1.125 1.125 0 1 1 0-2.25 1.125 1.125 0 0 1 0 2.25Zm7.312 4.5a2.254 2.254 0 0 0-1.688-2.18V.813a.562.562 0 1 0-1.125 0v6.82a2.25 2.25 0 0 0 0 4.36v1.195a.562.562 0 1 0 1.125 0v-1.195a2.254 2.254 0 0 0 1.688-2.18Zm-2.25 1.126a1.125 1.125 0 1 1 0-2.25 1.125 1.125 0 0 1 0 2.25Z"/></svg>
