<svg width="15" height="15" viewBox="0 0 15 15" fill="none" xmlns="http://www.w3.org/2000/svg">
<path d="M13.6354 10.1417L10.323 8.6574L10.3138 8.65318C10.1419 8.57963 9.95429 8.55012 9.76805 8.56731C9.58181 8.58449 9.40279 8.64784 9.24719 8.75162C9.22887 8.76372 9.21127 8.77687 9.19446 8.791L7.48305 10.25C6.39883 9.72334 5.27946 8.6124 4.75282 7.54225L6.21391 5.80482C6.22798 5.78725 6.24133 5.76967 6.25399 5.75068C6.35554 5.59551 6.41716 5.41763 6.43335 5.23288C6.44954 5.04814 6.41981 4.86226 6.3468 4.69178V4.68334L4.85829 1.36529C4.76178 1.14259 4.59583 0.957068 4.38522 0.836429C4.1746 0.715789 3.93062 0.666499 3.68969 0.695917C2.73694 0.821289 1.8624 1.28919 1.22941 2.01223C0.596427 2.73528 0.248284 3.66401 0.250006 4.62498C0.250006 10.2078 4.79219 14.75 10.375 14.75C11.336 14.7517 12.2647 14.4036 12.9878 13.7706C13.7108 13.1376 14.1787 12.263 14.3041 11.3103C14.3335 11.0694 14.2844 10.8255 14.1638 10.6149C14.0433 10.4043 13.858 10.2383 13.6354 10.1417ZM10.375 13.625C7.98886 13.6224 5.70119 12.6733 4.01392 10.9861C2.32666 9.2988 1.37761 7.01113 1.37501 4.62498C1.37236 3.93837 1.61973 3.27427 2.07091 2.75671C2.5221 2.23915 3.14625 1.90351 3.8268 1.81248C3.82653 1.81529 3.82653 1.81811 3.8268 1.82092L5.30337 5.12561L3.85001 6.86514C3.83525 6.88211 3.82185 6.90021 3.80993 6.91928C3.70412 7.08164 3.64205 7.26859 3.62973 7.46199C3.61741 7.6554 3.65526 7.84871 3.73962 8.02318C4.37665 9.32607 5.68938 10.629 7.00633 11.2653C7.18209 11.3489 7.37652 11.3854 7.57062 11.3714C7.76473 11.3573 7.95187 11.2931 8.11376 11.1851C8.13181 11.173 8.14918 11.1598 8.16579 11.1458L9.87508 9.68748L13.1798 11.1676C13.1798 11.1676 13.1854 11.1676 13.1875 11.1676C13.0976 11.8491 12.7624 12.4745 12.2448 12.9268C11.7271 13.3791 11.0624 13.6273 10.375 13.625Z" fill="#2494DB"/>
</svg>
