<svg width="512" height="512" viewBox="0 0 512 512" fill="none" xmlns="http://www.w3.org/2000/svg">
<g clip-path="url(#clip0_695_16)">
<path d="M430.1 416.2H80.5002C74.3002 416.2 69.2002 411.2 69.2002 404.9V163.5C69.2002 157.3 74.2002 152.2 80.5002 152.2H430.1C436.3 152.2 441.4 157.2 441.4 163.5V405C441.4 411.2 436.4 416.2 430.1 416.2Z" fill="#2D333A"/>
<path d="M167.4 228.1C171.211 228.1 174.3 225.011 174.3 221.2C174.3 217.389 171.211 214.3 167.4 214.3C163.589 214.3 160.5 217.389 160.5 221.2C160.5 225.011 163.589 228.1 167.4 228.1Z" fill="#ED1C24"/>
<path d="M167.4 312.9C171.211 312.9 174.3 309.811 174.3 306C174.3 302.189 171.211 299.1 167.4 299.1C163.589 299.1 160.5 302.189 160.5 306C160.5 309.811 163.589 312.9 167.4 312.9Z" fill="#39B54A"/>
<path d="M167.4 256.4C171.211 256.4 174.3 253.311 174.3 249.5C174.3 245.689 171.211 242.6 167.4 242.6C163.589 242.6 160.5 245.689 160.5 249.5C160.5 253.311 163.589 256.4 167.4 256.4Z" fill="#FBB03B"/>
<path d="M270.3 199.7C252.9 182.6 229.8 173.1 205.2 173.1C204.7 173.1 204.3 173.1 203.8 173.1C179.3 173.4 156.2 183.4 138.9 201.1C121.6 218.8 112.2 241.8 112.6 266.1C113 291 122.7 314.3 140.1 331.8C157.4 349.2 180.4 358.8 204.7 358.8C205.1 358.8 205.4 358.8 205.8 358.8C230.9 358.5 254.3 348.5 271.8 330.5C289.1 312.7 298.4 289.4 298 264.7C297.5 239.9 287.7 216.9 270.3 199.7ZM206.1 345.7C205.9 345.7 205.6 345.7 205.4 345.7C160.3 345.3 125.3 309.3 125.6 263.7C125.9 221.6 162.1 186 204.6 186C204.9 186 205.2 186 205.5 186C249.7 186.5 285.4 222.8 285.1 266.8C284.7 309.6 248.5 345.7 206.1 345.7Z" fill="#EDE8E8"/>
<path d="M328.6 365.1C323.6 360 318.5 354.8 313.5 349.9C309.2 345.6 304.7 341.1 300.3 336.6C299.1 335.3 297.9 334 296.9 332.7L286.1 343.3L273.9 355.2C276.7 358 279.5 360.8 282.2 363.6C290.1 371.5 298.2 379.7 306.3 387.6C310 391.2 314.2 393 318.5 393C322.6 393 326.5 391.3 329.7 388.1C336 381.9 335.6 372.2 328.6 365.1Z" fill="#EDE8E8"/>
<path d="M326.5 226.8H390.4C393.5 226.8 396 224.3 396 221.2C396 218.1 393.5 215.6 390.4 215.6H326.5C323.4 215.6 320.9 218.1 320.9 221.2C320.9 224.3 323.4 226.8 326.5 226.8Z" fill="#EDE8E8"/>
<path d="M390.4 243.8H326.5C323.4 243.8 320.9 246.3 320.9 249.4C320.9 252.5 323.4 255 326.5 255H390.4C393.5 255 396 252.5 396 249.4C396 246.4 393.5 243.8 390.4 243.8Z" fill="#EDE8E8"/>
<path d="M390.4 272.1H326.5C323.4 272.1 320.9 274.6 320.9 277.7C320.9 280.8 323.4 283.3 326.5 283.3H390.4C393.5 283.3 396 280.8 396 277.7C396 274.6 393.5 272.1 390.4 272.1Z" fill="#EDE8E8"/>
<path d="M390.4 300.4H326.5C323.4 300.4 320.9 302.9 320.9 306C320.9 309.1 323.4 311.6 326.5 311.6H390.4C393.5 311.6 396 309.1 396 306C396 302.9 393.5 300.4 390.4 300.4Z" fill="#EDE8E8"/>
<path d="M188.6 226.8H241.3C244.4 226.8 246.9 224.3 246.9 221.2C246.9 218.1 244.4 215.6 241.3 215.6H188.6C185.5 215.6 183 218.1 183 221.2C183 224.3 185.5 226.8 188.6 226.8Z" fill="#EDE8E8"/>
<path d="M241.3 300.4H188.6C185.5 300.4 183 302.9 183 306C183 309.1 185.5 311.6 188.6 311.6H241.3C244.4 311.6 246.9 309.1 246.9 306C246.9 302.9 244.4 300.4 241.3 300.4Z" fill="#EDE8E8"/>
<path d="M256.2 243.8H188.6C185.5 243.8 183 246.3 183 249.4C183 252.5 185.5 255 188.6 255H256.2C259.3 255 261.8 252.5 261.8 249.4C261.9 246.4 259.3 243.8 256.2 243.8Z" fill="#EDE8E8"/>
<path d="M256.2 272.1H188.6C185.5 272.1 183 274.6 183 277.7C183 280.8 185.5 283.3 188.6 283.3H256.2C259.3 283.3 261.8 280.8 261.8 277.7C261.9 274.6 259.3 272.1 256.2 272.1Z" fill="#EDE8E8"/>
<path d="M167.4 284.6C171.211 284.6 174.3 281.511 174.3 277.7C174.3 273.889 171.211 270.8 167.4 270.8C163.589 270.8 160.5 273.889 160.5 277.7C160.5 281.511 163.589 284.6 167.4 284.6Z" fill="#39B54A"/>
<path d="M80.6998 105.7C84.5106 105.7 87.5998 102.611 87.5998 98.7999C87.5998 94.9891 84.5106 91.8999 80.6998 91.8999C76.889 91.8999 73.7998 94.9891 73.7998 98.7999C73.7998 102.611 76.889 105.7 80.6998 105.7Z" fill="#ED1C24"/>
<path d="M108.6 105.7C112.411 105.7 115.5 102.611 115.5 98.7999C115.5 94.9891 112.411 91.8999 108.6 91.8999C104.789 91.8999 101.7 94.9891 101.7 98.7999C101.7 102.611 104.789 105.7 108.6 105.7Z" fill="#FBB03B"/>
<path d="M136.5 105.7C140.31 105.7 143.4 102.611 143.4 98.7999C143.4 94.9891 140.31 91.8999 136.5 91.8999C132.689 91.8999 129.6 94.9891 129.6 98.7999C129.6 102.611 132.689 105.7 136.5 105.7Z" fill="#39B54A"/>
<path d="M445.9 65H62.8C50.2 65 40 75.2 40 87.8V421.3C40 435.7 51.7 447.5 66.2 447.5H446C460.4 447.5 472.2 435.8 472.2 421.3V91.2C472.1 76.7 460.3 65 445.9 65ZM62.8 79H445.9C452.6 79 458.1 84.5 458.1 91.2V119.7H54V87.8C54 82.9 57.9 79 62.8 79ZM445.9 433.5H66.2C59.5 433.5 54 428 54 421.3V133.6H458.2V421.3C458.1 428 452.6 433.5 445.9 433.5Z" fill="#2D333A"/>
</g>
<defs>
<clipPath id="clip0_695_16">
<rect width="432.1" height="382.5" fill="white" transform="translate(40 65)"/>
</clipPath>
</defs>
</svg>
